<svg width="74" height="74" viewBox="0 0 74 74" fill="none" xmlns="http://www.w3.org/2000/svg">
<path d="M24.5 28H34L25.5 35L22 46.5V53L29.5 57.5" stroke="white" stroke-width="2"/>
<path d="M11.5 36.5L18 48C18.6667 49.1667 20.1 51.8 20.5 53C21 54.5 22.5 57 23 58C23.4 58.8 23.8333 59.6667 24 60C24 60 24.3 60 25.5 60C27 60 26 60 30 60C34 60 43 62 43 62.5M54.5 60C56 54 56.5 55 57 51C57.5 47 58.5 48.5 58 44.5C57.5 40.5 59 40 58 37.5C57 35 56.5 35.5 56.5 31.5C56.5 27.5 57 29 56.5 25C56 21 55.5 19.5 55 18.5C54.5 17.5 52 13 52 14.5C52 16 50.5 12.5 52 20C53.5 27.5 53.5 27.5 54 30C54.5 32.5 54.5 31.5 54.5 34C54.5 36.5 55 35.5 54.5 38.5C54 41.5 54.5 40 53.5 43.5C52.5 47 52 47.5 52 48.5M37 60C38.6667 60.1667 42 59.4 42 55C42 50.6 38.6667 49.8333 37 50C35.3333 50 32 51 32 55C32 59 35.3333 60 37 60Z" stroke="white" stroke-width="5"/>
<path d="M5.5 50L21.5 17L31 11H43.5C45.6667 11.6667 50 13.2 50 14C50 15 51 15.5 51.5 17C52 18.5 53 22 53 23.5C53 25 53 24.5 53 26.5C53 28.5 54.5 30.5 53 32C51.8 33.2 50.5 37.1667 50 39" stroke="white" stroke-width="5"/>
<path d="M61.5 41H60.5L59 42.5L55.5 44.5L52 46.5L48.5 48.5L44.5 46.5L41 45.5L44.5 44.5H47L48.5 45.5H50L50.5 44" stroke="white" stroke-width="5"/>
<path d="M38.5 68L16 50.5L9.50001 29.5L17.5 19L32 7.00004L45.5 10.5L56 21L62 26.5L64 32.5C64.3333 34.3334 65 38.2 65 39C65 39.8 65 42 65 43L64 46.5C63.6667 46.8334 62.8 47.8 62 49C61.2 50.2 59 52.1667 58 53L54 56.5L52.5 58L50 59.5C48.5 60.1667 45.5 61.6 45.5 62C45.5 62.4 43.8333 63.5 43 64L41 65L37.5 66.5H35H34H32H28.5C27.5 66.3334 25.4 65.8 25 65C24.6 64.2 21.1667 62.6667 19.5 62L16 58L14.5 56.5L21.5 64C14.5 60.3334 1.90001 47 7.50001 23C13.3333 15.3334 26.8 1.70004 34 8.50004L16 24.5V37.5L18.5 40V43L21.5 44.5L22.5 45.5L25 47.5L26.5 49L28 49.5L30 50.5L31 52" stroke="white" stroke-width="10"/>
<path d="M37.5 68.5C47.3333 66.5 67.4 57.5 69 37.5" stroke="white" stroke-width="10"/>
<path d="M33.5 31L29 38L27 39.5L26 31V30V29" stroke="white" stroke-width="10"/>
<path d="M60 21.5C59.7872 17.5626 54.9539 10.4995 45.5 7.85985M45.5 7.85985C40.1477 6.36543 33.3144 6.28886 25 9.00007C-2.59997 20.2001 22.8334 14.6667 39 10.5L49 12L51 15L53 19.5V24.5V29V13.5L45.5 7.85985ZM45 12.5L51 17L39 4.5" stroke="white" stroke-width="10"/>
<rect x="15" y="21" width="10" height="10" fill="white"/>
<rect x="41" y="40" width="10" height="10" fill="white"/>
<rect x="49.9741" y="33" width="10" height="17.3275" transform="rotate(48.4834 49.9741 33)" fill="white"/>
<rect x="45.1011" y="44.0708" width="7.51282" height="17.3275" transform="rotate(96.8638 45.1011 44.0708)" fill="white"/>
<path d="M49 64C60.6667 57.1667 82 27.5 53 11.5M46 59L54.5 27.5V55L61 61" stroke="white" stroke-width="10"/>
<circle cx="37" cy="28" r="6" fill="white"/>
<circle cx="21" cy="35" r="6" fill="white"/>
<circle cx="28" cy="41" r="6" fill="white"/>
<circle cx="27" cy="53" r="6" fill="white"/>
<path d="M24.5 28C24.6667 24 27.4 16 37 16C46.6 16 49 24 49 28C49 29.5 48.8 32.8 48 34C47 35.5 39.5 40.5 40 43M37 72.5C25.8333 72.1667 0.999819 64.9703 1 36.5C1.00018 8.5 24.1667 1 37 1C49 1.33333 73 8.9 73 36.5C73 64.1 48.5 72.5 37 72.5Z" stroke="white" stroke-width="2"/>
<path d="M30.5 39H24C24.5 37.1667 26.5 32.4 30.5 28" stroke="white" stroke-width="2"/>
<path d="M39.5 43.5H33L34 43V39C34.8333 37.6667 36.8 34.8 38 34" stroke="white"/>
<path d="M43.5 41L44 46L34.5 46.5L30 45C30 43.8333 30.1 41.4 30.5 41C30.9 40.6 33 40.1667 34 40C35 37.1667 37.5 31.5 39.5 31.5C41.5 31.5 40.3333 32.5 39.5 33C39.1667 33.3333 38.2 34.1 37 34.5" stroke="white"/>
</svg>
