<svg width="66" height="66" viewBox="0 0 66 66" fill="none" xmlns="http://www.w3.org/2000/svg">
<rect x="5.5" y="0.5" width="56" height="11" fill="white" stroke="white"/>
<rect x="6.5" y="18.5" width="56" height="11" fill="white" stroke="white"/>
<rect x="3.5" y="36.5" width="56" height="11" fill="white" stroke="white"/>
<rect x="18.5" y="9.5" width="5" height="49" fill="white" stroke="white"/>
<circle cx="5" cy="5" r="4.5" fill="white" stroke="white"/>
<circle cx="61" cy="5" r="4.5" fill="white" stroke="white"/>
<circle cx="61" cy="61" r="4.5" fill="white" stroke="white"/>
<circle cx="5" cy="61" r="4.5" fill="white" stroke="white"/>
<circle cx="15" cy="51" r="4" stroke="white" stroke-width="2"/>
<circle cx="15" cy="33" r="4" stroke="white" stroke-width="2"/>
<circle cx="15" cy="15" r="4" stroke="white" stroke-width="2"/>
<rect x="4.5" y="54.5" width="56" height="11" fill="white" stroke="white"/>
<rect x="54.5" y="5.5" width="11" height="55" fill="white" stroke="white"/>
<rect x="0.5" y="5.5" width="11" height="55" fill="white" stroke="white"/>
<rect x="23" y="11" width="32" height="8" rx="3" stroke="white" stroke-width="2"/>
<rect x="23" y="29" width="32" height="8" rx="3" stroke="white" stroke-width="2"/>
<rect x="23" y="47" width="32" height="8" rx="3" stroke="white" stroke-width="2"/>
</svg>
