<svg width="68" height="68" viewBox="0 0 68 68" fill="none" xmlns="http://www.w3.org/2000/svg">
<path d="M2 7.94L2.5 6.44L8 7.44L6.5 8.44V8.94V10.44V11.44C6.33333 11.7733 6.1 12.44 6.5 12.44C6.9 12.44 7 12.7733 7 12.94L7.5 13.44H8H8.5V13.94L6.5 13.44L7.5 12.44L7 11.94L3.5 10.94" stroke="white"/>
<circle cx="3.5" cy="59.94" r="2.5" fill="white"/>
<circle cx="5.5" cy="61.94" r="2.5" fill="white"/>
<circle cx="6.5" cy="62.94" r="2.5" fill="white"/>
<circle cx="8.5" cy="64.94" r="2.5" fill="white"/>
<circle cx="7.5" cy="60.94" r="2.5" fill="white"/>
<circle cx="62" cy="18.4536" r="5" fill="white"/>
<rect width="6.13564" height="48.5988" transform="matrix(0.00260189 0.999997 0.999997 -0.00260189 8 1.56647)" fill="white"/>
<rect width="6.13564" height="48.5988" transform="matrix(0.00260189 0.999997 0.999997 -0.00260189 8 1.56647)" fill="white"/>
<rect width="54" height="9" transform="matrix(-1 0 0 1 62 58.4535)" fill="white"/>
<rect width="54" height="9" transform="matrix(-1 0 0 1 62 58.4535)" fill="white"/>
<rect width="54" height="9" transform="matrix(-1 0 0 1 62 13.4536)" fill="white"/>
<rect width="54" height="9" transform="matrix(-1 0 0 1 62 13.4536)" fill="white"/>
<rect width="54" height="14" transform="matrix(-1 0 0 1 65 21.4536)" fill="white"/>
<rect width="54" height="14" transform="matrix(-1 0 0 1 65 21.4536)" fill="white"/>
<rect width="54" height="14" transform="matrix(-1 0 0 1 64 45.4535)" fill="white"/>
<rect width="54" height="14" transform="matrix(-1 0 0 1 64 45.4535)" fill="white"/>
<rect width="5" height="41" transform="matrix(-1 0 0 1 67 18.4536)" fill="white"/>
<rect width="5" height="41" transform="matrix(-1 0 0 1 67 18.4536)" fill="white"/>
<rect width="5" height="9" transform="matrix(-0.903015 0.429608 0.429608 0.903015 62.5156 31.4536)" fill="white"/>
<rect width="5" height="9" transform="matrix(-0.903015 0.429608 0.429608 0.903015 62.5156 31.4536)" fill="white"/>
<rect width="5" height="9" transform="matrix(-0.903015 0.429608 0.429608 0.903015 48.5156 40.4535)" fill="white"/>
<rect width="5" height="9" transform="matrix(-0.903015 0.429608 0.429608 0.903015 48.5156 40.4535)" fill="white"/>
<rect width="5" height="9" transform="matrix(-0.903015 0.429608 0.429608 0.903015 47.5156 28.4536)" fill="white"/>
<rect width="5" height="9" transform="matrix(-0.903015 0.429608 0.429608 0.903015 47.5156 28.4536)" fill="white"/>
<rect width="5" height="9" transform="matrix(-0.85807 -0.513533 -0.513533 0.85807 65.9121 43.0212)" fill="white"/>
<rect width="5" height="9" transform="matrix(-0.85807 -0.513533 -0.513533 0.85807 65.9121 43.0212)" fill="white"/>
<rect width="18" height="47" transform="matrix(-1 0 0 1 19 13.4536)" fill="white"/>
<rect width="18" height="47" transform="matrix(-1 0 0 1 19 13.4536)" fill="white"/>
<path d="M1 60.4536V8.95355C1.8 5.35355 6.33333 2.45355 8.5 1.45355H56C59.2 4.25355 57.3333 6.62022 56 7.45355H9.5C8.5 7.62022 6.6 8.45355 7 10.4536C7.4 12.4536 8.83333 13.2869 9.5 13.4536H62C65.6 14.6536 66.8333 17.6202 67 18.9536V62.4536C65.8 64.8536 63.1667 66.7869 62 67.4536H8.5C5.3 66.2536 2.16667 62.2869 1 60.4536Z" stroke="white"/>
<circle cx="55" cy="40.4536" r="6" stroke="white" stroke-width="2"/>
<rect width="18" height="47" transform="matrix(-1 0 0 1 36 13.4536)" fill="white"/>
<rect width="18" height="47" transform="matrix(-1 0 0 1 36 13.4536)" fill="white"/>
<rect width="18" height="47" transform="matrix(-1 0 0 1 49 13.4536)" fill="white"/>
<rect width="18" height="47" transform="matrix(-1 0 0 1 49 13.4536)" fill="white"/>
<ellipse cx="4" cy="11.44" rx="3" ry="5" fill="white"/>
<ellipse cx="58" cy="61.44" rx="9" ry="6" fill="white"/>
<ellipse cx="58" cy="61.44" rx="9" ry="6" fill="white"/>
<ellipse cx="58" cy="61.44" rx="9" ry="6" fill="white"/>
<circle cx="62" cy="18.44" r="5" fill="white"/>
<ellipse cx="5.57279" cy="6.10505" rx="2.5" ry="4.47147" transform="rotate(33.9931 5.57279 6.10505)" fill="white"/>
<circle cx="55.5" cy="4.94" r="2.5" fill="white"/>
</svg>
